<svg width="3000" height="1055" viewBox="0 0 3000 1055" fill="none" xmlns="http://www.w3.org/2000/svg">
<g clip-path="url(#clip0_1_2)">
<rect x="721" width="437" height="312" fill="#191D37"/>
<rect x="2673" y="-6" width="127" height="103" fill="#191D37"/>
<rect x="1912" y="-3" width="287" height="281" fill="#191D37"/>
<rect width="314" height="334" fill="#191D37"/>
<rect x="273" y="726" width="373" height="329" fill="#191D37"/>
<path d="M0 -2.33054e-05V172H1C10.0609 138.805 24.1075 106.646 35 74C37.4597 66.6281 41.4695 44.3963 49.1049 41.213C52.2223 39.9133 56.1087 42.2757 59 43.3079C66.7456 46.073 74.8982 49.6059 83 51C86.4859 40.287 90.2015 29.5352 94.1921 19C95.4923 15.5676 96.4309 9.84153 100.133 8.13267C106.385 5.24729 120.049 16.3809 125 19.6675C148.659 35.3718 169.969 58.5121 181 85C209.94 75.1489 234.9 66.4146 266 68.9144C272.542 69.4402 290.067 69.1556 293.498 76.0547C295.271 79.6217 291.667 85.6761 290.424 89C286.654 99.0842 281.571 110.364 280 121C287.19 122.704 309.525 127.17 312.879 134.133C316.161 140.949 305.419 161.104 302.808 168C291.335 198.293 280.912 229.269 270.667 260C265.865 274.401 260.483 288.603 255.667 303C254.264 307.192 252.71 315.75 247.892 317.303C242.4 319.073 233.169 313.408 228 311.667C210.261 305.696 192.579 299.477 175 293.053C163.487 288.846 150.12 282.155 138 280.422C128.914 279.123 122.715 283.847 113 280.305C103.744 276.93 100.216 268.093 91.9846 264.247C63.2278 250.811 30.1963 241.826 0 232V1055H508C508.038 1041.11 517.57 1030.15 525 1019C538.967 998.05 552.703 976.946 566.667 956C573.428 945.858 582.058 933.97 596 937C614.042 896.298 607.843 847.337 577.829 814C541.021 773.115 474.209 768.439 431 801.679C409.709 818.058 398.427 840.091 390 865C403.918 875.633 402.239 887.311 401.089 903C399.45 925.356 397.302 947.687 395.17 970C394.164 980.531 395.15 992.978 391.441 1003C386.792 1015.56 373.657 1021.5 361 1018.24C348.682 1015.07 348.616 1006.42 341.157 998.728C336.184 993.601 327.574 992.954 322.326 986.96C308.412 971.069 315.013 947.015 316.83 928C318.708 908.349 319.26 888.786 341 880.468C344.373 879.178 349.619 879.91 352.301 877.397C355.771 874.145 356.81 867.318 358.424 863C362.664 851.661 365.94 839.915 371.259 829C383.799 803.269 404.013 781.803 429 767.862C446.304 758.207 465.25 752.05 485 750.17C586.928 740.463 662.667 846.135 627.576 940C624.677 947.753 616.768 961.687 618.118 970C618.746 973.866 622.807 976.856 624.895 980C629.518 986.962 631.453 994.79 629.905 1003C626.188 1022.72 606.967 1036.62 600 1055H3000V-2.33054e-05H2765C2768.16 11.2225 2773.02 24.5148 2769.25 36C2763.01 55.0186 2727.57 83.4722 2707.19 67.1998C2697.76 59.6771 2701.03 47.7859 2706.47 39C2716.63 22.5837 2736.74 10.8295 2756 9.99998L2754 -2.33054e-05H2346H2227H2193C2188.24 -2.33054e-05 2181.57 -1.18081 2177.09 0.603371C2171.84 2.69432 2168.14 10.5902 2165 15C2155.97 27.6809 2146.93 40.3477 2137.86 53C2114.46 85.6554 2091.02 118.284 2067.71 151C2055.83 167.675 2044.61 189.622 2029.68 203.61C2023.15 209.725 2011.99 213.746 2004 217.753C1993.54 223 1983.43 228.942 1973 234.244C1968.56 236.503 1963.21 240.266 1958 239.743C1941.66 238.102 1947.77 218.225 1949.41 208C1952.1 191.23 1951.86 169.673 1958.39 154C1962.83 143.356 1972.44 133.355 1979.14 124C1983.93 117.317 1988.68 110.611 1993.58 104.005C1995.21 101.795 1997.52 97.8736 2000.87 98.7515C2007.73 100.554 1999.08 110.484 1997.29 113L1976.42 142C1974.36 144.885 1969.06 150.006 1970.31 153.907C1971.85 158.729 1981.05 163.183 1985 166C1998.56 175.672 2011.83 186.252 2026 195L2119.71 64L2165 -2.33054e-05C2161.05 -2.33054e-05 2155.67 -0.919579 2152.09 1.02769C2147.85 3.33384 2145.02 9.17747 2142.29 13L2122.29 41C2119.27 45.2171 2115.03 53.9288 2109.98 55.8241C2105.98 57.3231 2104.62 52.9529 2105.91 49.9992C2108.39 44.3052 2113.41 39.0471 2117 34L2126.29 21C2131.22 14.0874 2136.8 7.37254 2141 -2.33054e-05H2097C2091.78 -2.33054e-05 2082.94 -1.68081 2078.3 1.02769C2071.44 5.03416 2066.17 16.6312 2061.58 23C2059.07 26.4738 2048.57 45.1223 2043.37 40.5339C2039.65 37.2451 2045.07 31.7148 2047 29C2053.65 19.651 2062.07 10.3661 2067 -2.33054e-05H995L1003.56 25L1002 56C1024.37 58.8421 1064.24 58.8778 1079.1 78.0146C1090.26 92.3939 1085.8 107.574 1083.08 124C1077.89 155.312 1071.93 186.583 1067.43 218C1064.92 235.483 1063.7 253.02 1048 264.211C1036.55 272.372 1023.82 269.383 1011 267.247C988.242 263.454 964.992 257.817 942 256L938 284C942.749 284.895 952.036 284.653 955.382 288.514C958.626 292.257 955.411 310.587 949.891 311.254C939.998 312.449 926.836 307.709 917 306.08C893.817 302.24 869.882 299.701 847.002 294.37C838.715 292.439 839.633 275.452 845.434 270.618C849.365 267.341 859.513 270.895 864 272L869 244C847.962 237.347 823.785 236.067 802 232.414C789.87 230.379 777.364 229.139 768.289 219.826C754.057 205.22 759.267 187.88 762.247 170C762.892 166.13 762.905 153.893 768.075 153.176C775.983 152.079 767.838 170.834 771.604 173.987C774.377 176.308 780.549 176.178 784 176.753L815 181.92C868.001 190.699 921.008 199.415 974 208.247C1002.01 212.916 1030.7 219.763 1059 222C1061.47 190.704 1069.22 158.974 1074.41 128C1076.6 114.977 1082.47 98.3177 1075.47 86C1067.55 72.0715 1050.11 71.8062 1036 69.7284C1026.88 68.3853 1007.89 60.9086 999.329 64.6073C994.121 66.8572 989.798 76.7691 985.914 81C970.2 98.1178 954.239 116.969 951 141C952.618 141.905 954.461 142.691 954.083 145C953.565 148.169 949.881 148.49 948.086 150.584C944.708 154.523 946.009 163.238 939.895 164.643C931.855 166.49 919.107 161.774 911 160.414C907.7 159.86 903.142 159.812 900.318 157.836C897.626 155.952 898.68 152.982 897.397 150.429C895.178 146.01 887.188 141.689 898 140C897.995 133.824 891.39 125.311 899 123C898.899 110.828 897.256 96.4331 892.934 85C887.667 71.0662 879.208 58.1833 878 43C861.346 41.6837 844.49 37.8064 828 35.0803C817.324 33.3154 806.98 31.6108 798.04 39.3295C784.44 51.0714 785.209 79.3315 782.414 96C781.762 99.8869 781.424 115.011 775.13 114.079C769.493 113.244 774.33 97.5579 774.92 94C778.055 75.0735 777.576 49.1403 792.015 35.0401C812.737 14.8032 851.902 31.8115 877 35L888 -2.33054e-05H0Z" fill="#191D37"/>
<path d="M2832.41 -20L2737.23 28.0269C2746.67 64.489 2757.53 103.356 2762.55 140.672C2745.91 140.674 2729.2 149.329 2719.85 163.376C2711.87 175.375 2712.7 192.117 2730.24 192.973C2737.24 193.315 2745.09 190.335 2751.2 187.14C2787.45 168.151 2769.88 130.685 2762.86 99.6307C2761.48 93.5523 2756.48 82.2982 2758.1 76.2399C2759.41 71.3533 2772.29 67.4754 2776.52 65.3596C2795.7 55.7699 2816.18 41.8171 2836.77 35.8859L2851.62 103.997C2834.15 103.997 2817.95 110.965 2807.87 125.827C2801.77 134.826 2798.98 150.4 2812.32 154.377C2832.77 160.475 2860.75 139.972 2863.45 119.715C2865.07 107.483 2858.14 91.5081 2855.48 79.5467C2850.12 55.4171 2845.45 30.9645 2839.16 7.06972C2836.91 -1.47147 2836.55 -12.2086 2832.41 -20Z" fill="#4A99D0"/>
<path d="M961.6 21.3726L855.254 28.8851C849.869 66.1623 844.868 106.208 835.078 142.565C819.727 136.134 800.975 137.662 786.921 147.003C774.923 154.986 769.218 170.747 785.067 178.317C791.394 181.338 799.786 181.624 806.65 181.036C847.428 177.534 845.703 136.188 851.22 104.83C852.297 98.691 852.039 86.3809 855.871 81.4176C858.967 77.4169 872.353 78.8211 877.069 78.503C898.461 77.069 922.747 72.117 944.03 74.6039L931.399 143.16C915.292 136.411 897.651 136.574 882.614 146.388C873.515 152.331 864.919 165.616 875.688 174.44C892.193 187.968 925.921 179.87 936.238 162.229C942.463 151.575 942.242 134.162 944.408 122.101C948.796 97.7774 953.937 73.4192 957.365 48.9477C958.596 40.2029 962.415 30.1615 961.6 21.3726Z" fill="#4A99D0"/>
<path d="M467.761 98.5478C474.915 98.9352 476.611 106.969 477.512 113L520 100.612C516.789 79.1304 500.232 63.6141 478.905 60.0642C474.643 59.3548 460.165 57.3698 457.397 61.773C455.995 64.004 458.7 69.4172 459.42 71.7079C462.219 80.6049 465.634 89.4669 467.761 98.5478Z" fill="#4A99D0"/>
<path d="M421.937 132L464 118.622L460.826 105.949L462.484 98.9082L451.381 63C432.938 66.1996 418.312 88.1618 417.093 105.949C416.463 115.137 419.148 123.391 421.937 132Z" fill="#4A99D0"/>
<path d="M466.348 103.548C464.307 104.95 465.038 107.768 465.619 109.744C467.393 115.784 468.841 122.677 471.508 128.36C472.437 130.34 474.488 131.859 476.602 130.451C478.641 129.093 478 126.24 477.461 124.255C475.835 118.271 474.407 111.184 471.672 105.639C470.71 103.691 468.412 102.131 466.348 103.548Z" fill="#4A99D0"/>
<path d="M521.781 106L479.875 119.252C481.803 125.174 485.409 132.828 477.081 135.431C466.805 138.643 470.464 125.177 464.409 124.584C461.065 124.256 456.537 126.8 453.334 127.721C443.527 130.541 433.954 134.411 424 136.69C424.577 143.289 427.607 149.914 429.57 156.219C432.359 165.182 434.431 175.003 438.647 183.422C455.442 216.967 506.196 216.631 527.07 187.607C541.385 167.701 535.834 147.615 528.765 126.227C526.63 119.767 525.416 111.768 521.781 106Z" fill="#4A99D0"/>
<path d="M2115.72 -13C2102.9 -12.9986 2098.15 -1.10219 2091.31 8.46503C2089.25 11.3606 2084.03 16.4447 2084.88 20.3583C2086.76 29.035 2097.4 12.803 2098.66 11.0408C2100.93 7.87903 2103.21 4.72908 2105.52 1.59622C2109.02 -3.17134 2112.61 -7.96421 2115.72 -13ZM2178.39 -13C2163.63 -12.9984 2154.45 8.54376 2146.51 19.6268C2144.4 22.5651 2136.3 30.767 2140.27 34.5258C2144.27 38.3002 2149.71 28.0297 2151.42 25.6371C2160.28 13.248 2171.85 0.766467 2178.39 -13Z" fill="#4A99D0"/>
<path d="M2021.27 119.225V118.366C2031.27 109.222 2038.78 95.0627 2046.67 84.0219C2048.23 81.8291 2055.42 73.3203 2049.47 71.7882C2046.56 71.0338 2044.44 74.3403 2042.98 76.2988C2038.57 82.2498 2034.29 88.3012 2029.98 94.3251C2024.71 101.676 2016.52 109.914 2013.29 118.366C2008.26 131.563 2008.64 148.266 2005.99 162.155C2004.61 169.337 1999.92 184.191 2006.15 189.941C2012.27 195.585 2019.46 191.185 2025.56 188.125C2040.96 180.407 2057.31 172.713 2071.89 163.57C2077.55 160.025 2081.25 152.891 2085.06 147.558C2093.01 136.389 2100.98 125.222 2108.97 114.073C2129.47 85.4644 2149.99 56.874 2170.42 28.2129C2179.61 15.307 2192.86 1.59991 2199 -13C2184.63 -12.9985 2176.32 7.18649 2168.59 17.9096C2144.69 51.0063 2121.06 84.2993 2097.32 117.507L2078.3 144.124C2076.56 146.556 2073.78 152.352 2070.54 152.92C2066.95 153.549 2060.12 146.617 2057.33 144.621C2045.51 136.17 2033.97 126.301 2021.27 119.225Z" fill="#4A99D0"/>
<path d="M2068.51 42.715C2063.76 43.9006 2056.63 55.6192 2054.91 59.9779C2053.95 62.4181 2054.92 65.8938 2058.19 65.1579C2062.99 64.0788 2070.15 52.3223 2071.83 47.9614C2072.8 45.4451 2071.94 41.8613 2068.51 42.715Z" fill="#4A99D0"/>
<path d="M2018.69 126.952C2018.21 138.168 2010.91 153.802 2013.57 164.651C2014.38 167.95 2018.71 170.026 2021.27 171.849C2035.15 181.74 2050.52 165.472 2064.2 159.579L2043.59 143.763L2018.69 126.952Z" fill="#191D37"/>
<path d="M2011.82 174.175C2009.48 183.703 2013.71 188.023 2022.13 181.044L2011.82 174.175Z" fill="#191D37"/>
<path d="M71.8307 34.2795L71.0058 34.2328C68.8082 30.9328 62.4237 28.3861 58.8197 30.232C57.4311 27.4345 55.3487 26.3856 52.485 25.1932C38.3213 19.2958 36.6421 37.3461 32.0147 47.746C17.8364 79.6108 -1.4327 115.067 -3.41286 150.007L-2.58798 150.053C9.43998 108.841 34.3734 71.547 46.3997 30.3556L52.9053 32.3794L16.7649 119.704L-0.86133 163.392L-1.68621 163.345L-4.0206 160.73C-4.58552 171.363 9.98038 173.052 18.2435 176.729C35.0119 184.19 52.1627 191.084 69.1735 197.977C75.5627 200.566 86.9094 202.907 91.8025 207.537L95.1955 206.074L94.2304 208.502L195.33 249.816C190.048 252.75 184.133 248.756 178.957 246.681C165.974 241.476 153.078 236.009 140.143 230.68C129.127 226.143 117.048 218.823 105.364 216.473C99.433 215.279 95.3148 219.901 88.7784 217.092C81.9513 214.158 81.4764 206.898 75.4592 203.814C50.1597 190.844 21.919 180.944 -4.58159 170.629C-5.16711 181.103 4.50094 181.684 12.7908 185.33C31.2002 193.428 50.348 199.953 68.576 208.464C75.6177 211.752 78.0893 219.894 85.9509 223.178C93.4148 226.295 100.373 222.62 107.391 224.519C126.336 229.645 145.017 240.228 163.176 247.709C170.989 250.927 178.786 254.179 186.629 257.322C189.295 258.391 193.318 261.094 196.237 259.739C199.427 258.258 200.441 253.141 201.609 250.172C204.71 242.285 208.398 234.616 211.534 226.736C222.749 198.546 235.128 170.827 246.366 142.647C249.061 135.89 251.848 129.114 254.728 122.433C255.929 119.646 258.48 115.89 257.777 112.721C257.114 109.726 253.898 108.632 251.385 107.625C244.621 104.914 237.384 101.164 230.328 99.5341C234.68 91.047 237.969 81.7271 241.495 72.8585C242.587 70.1086 245.473 65.4656 243.957 62.4911C241.393 57.4613 225.463 56.3639 220.385 55.9512C195.798 53.9528 173.284 56.6717 150.301 66.0352C150.675 60.2154 146.191 54.0771 143.462 49.097C134.818 33.324 122.654 19.1211 108.045 8.55608C104.076 5.68585 93.3114 -4.0012 88.0609 -1.92963C84.7362 -0.61766 83.6308 4.59758 82.4471 7.57274C78.9738 16.3029 73.9473 25.1171 71.8307 34.2795Z" fill="#4A99D0"/>
<path d="M90.7895 6.39048L60.4399 79.148L38.0348 134.15C62.8018 146.151 79.6647 170.648 93.4222 193.561C97.8855 189.042 99.8597 180.884 102.196 175.025C106.84 163.38 111.813 151.851 116.588 140.257C123.256 124.07 130.048 107.934 136.716 91.7461C139.331 85.3982 144.431 77.5808 145.072 70.704C145.617 64.8595 139.714 56.9462 136.983 52.0399C127.204 34.4766 110.459 13.4081 90.7895 6.39048Z" fill="#191D37"/>
<path d="M85.9448 27.6872C80.9645 30.8333 89.5856 35.2683 91.569 36.4396C104.918 44.3215 115.716 55.2137 124.531 67.8848C126.464 70.6647 131.221 82.8318 135.897 80.0755C140.779 77.1968 132.463 66.8577 130.539 64.0877C122.006 51.8021 111.81 41.0619 99.2188 32.8754C96.4876 31.0997 89.3819 25.5163 85.9448 27.6872Z" fill="#4A99D0"/>
<path d="M59.3173 36.0529C45.6735 62.5436 35.8732 91.7624 24.5227 119.316C18.6984 133.455 8.70786 149.489 6.51585 164.637L87.4142 197.358C79.3685 180.779 66.5833 164.262 52.7343 152.208C47.4955 147.649 33.2734 142.854 30.4898 136.856C27.9153 131.308 36.8689 117.235 39.0226 111.863C48.6656 87.8119 58.3506 63.5205 69.0289 39.9134L59.3173 36.0529Z" fill="#191D37"/>
<path d="M77.9547 47.6895C73.9008 49.1999 77.7971 53.3804 79.8004 54.5561C94.0768 62.9351 106.399 73.4566 115.803 87.2508C117.739 90.0914 122.805 102.545 127.411 100.25C132.661 97.6343 123.681 86.2094 121.81 83.4537C113.806 71.6608 103.247 61.2254 91.4427 53.2691C88.354 51.1874 81.9745 46.1919 77.9547 47.6895Z" fill="#4A99D0"/>
<path d="M100.659 197.281C128.96 192.402 155.192 184.775 183.568 194.532L221.304 103.16L236.369 65.9478C214.511 61.9154 194.481 60.2699 172.65 65.9315C166.917 67.4182 158.281 68.8371 153.586 72.5925C150.678 74.919 149.331 79.9356 147.954 83.2802L137.688 108.352C125.46 138.036 112.651 167.502 100.659 197.281Z" fill="#191D37"/>
<path d="M69.362 68.1034C64.3039 70.9876 72.3893 75.1348 74.4144 76.3005C87.8448 84.0303 98.6606 94.8938 107.564 107.472C109.451 110.139 114.546 122.437 118.833 120.41C124.486 117.737 115.37 106.422 113.508 103.671C105.366 91.6402 95.1042 81.1192 82.8649 73.2086C79.8406 71.2542 73.1716 65.9312 69.362 68.1034Z" fill="#4A99D0"/>
<path d="M183.634 76.5508C174.212 77.2638 165.21 78.0558 156.09 80.7167C153.803 81.384 146.711 84.3534 151.109 87.5413C153.983 89.624 160.17 86.5843 163.242 85.9275C173.73 83.6852 184.132 82.8439 194.828 83.4542C201.31 83.824 215.049 90.0272 220.708 87.7196C227.106 85.1098 217.004 80.5587 214.885 79.9979C204.932 77.3643 193.944 75.7706 183.634 76.5508Z" fill="#4A99D0"/>
<path d="M62.3119 87.5881C58.6906 88.26 59.9222 92.2134 61.9577 93.8382C75.4865 104.64 88.5473 112.041 98.8463 126.839C100.974 129.896 105.493 141.657 110.327 140.182C116.419 138.324 106.617 125.573 104.854 123.042C96.844 111.53 86.8845 101.241 75.0907 93.5721C72.001 91.564 66.2365 86.8597 62.3119 87.5881Z" fill="#4A99D0"/>
<path d="M173.392 96.659C164.312 97.375 155.386 98.4249 146.66 101.161C144.414 101.865 138.488 105.765 143.222 107.974C146.784 109.635 154.286 106.025 158.008 105.27C168.273 103.188 178.314 103.19 188.71 103.796C194.818 104.152 206.795 109.883 212.212 107.906C219.187 105.362 208.348 100.559 206.303 100.002C195.985 97.1881 184.085 95.816 173.392 96.659Z" fill="#4A99D0"/>
<path d="M228.304 106.04C215.773 126.871 208.269 153.036 198.996 175.546C196.412 181.819 193.014 197.92 186.989 201.416C184.352 202.946 180.873 200.978 178.28 200.22C171.726 198.303 164.604 197.021 157.807 196.418C139.385 194.784 121.439 200.989 103.585 204.067C109.623 208.362 117.766 210.41 124.578 213.278C138.029 218.941 151.452 224.735 164.998 230.167C168.928 231.742 181.02 239.182 184.759 236.271C190.855 231.524 194.228 214.866 197.173 207.716C207.058 183.72 216.647 159.518 227.096 135.762C231.517 125.712 242.887 110.298 228.304 106.04Z" fill="#191D37"/>
<path d="M244.475 112.749L211.23 192.79L191.673 241.333L197.354 243.31C210.278 199.027 237.001 158.92 250.155 114.726L244.475 112.749Z" fill="#191D37"/>
<path d="M53.0358 107.792C48.0423 110.275 55.2471 114.827 57.2688 116.002C70.9319 123.939 82.2373 134.892 91.1373 147.918C93.0644 150.739 97.8906 162.36 102.501 160.076C107.694 157.503 98.9207 146.741 97.1476 144.121C89.0148 132.102 78.7483 121.256 66.5238 113.316C63.6212 111.431 56.6978 105.972 53.0358 107.792Z" fill="#4A99D0"/>
<path d="M173.094 116.502C167.816 116.893 162.605 116.815 157.321 117.397C150.653 118.133 143.516 119.185 137.234 121.656C134.76 122.63 131.033 126.535 135.319 128.139C138.86 129.463 144.973 126.525 148.568 125.828C158.174 123.966 167.86 122.61 177.662 123.522C184.295 124.139 197.791 129.826 203.702 127.954C209.764 126.035 202.666 121.501 200.166 120.689C191.882 118.002 181.819 115.856 173.094 116.502Z" fill="#4A99D0"/>
<path d="M164.502 136.703C154.056 137.477 143.926 137.416 133.689 140.126C131.226 140.777 123.543 142.152 125.211 146.28C126.987 150.673 136.846 146.428 139.987 145.826C150.399 143.828 161.798 141.943 172.389 143.56C178.356 144.471 189.563 149.575 195.18 148.091C201.152 146.513 195.123 141.792 192.396 140.958C183.82 138.337 173.485 136.038 164.502 136.703Z" fill="#4A99D0"/>
<path d="M153.434 156.764C148.448 157.134 143.471 157.193 138.485 157.709C132.467 158.332 125.684 159.36 120.096 161.806C117.639 162.882 114.902 167.122 118.981 168.189C123.383 169.339 130.312 165.98 134.751 165.189C144.893 163.381 155.185 162.499 165.449 163.788C170.959 164.481 182.24 169.746 187.304 167.752C193.383 165.357 184.227 161.028 182.19 160.432C173.102 157.774 162.914 156.062 153.434 156.764Z" fill="#4A99D0"/>
<path d="M-4.44141 168.154C-3.40991 172.605 4.46642 174.226 8.36709 175.776C21.3521 180.938 34.3509 186.263 47.1801 191.803C56.706 195.915 68.383 198.833 77.0594 204.51C81.8287 207.631 81.1604 213.496 87.1666 216.328C94.697 219.878 100.611 214.407 107.005 216.728C136.031 227.264 163.815 243.854 193.54 252.197C192.287 247.503 185.683 246.268 181.556 244.622C169.64 239.869 157.889 234.691 145.979 229.916C112.688 216.569 79.5861 202.595 46.5298 188.676C30.3363 181.857 12.7766 171.703 -4.44141 168.154Z" fill="#191D37"/>
<path d="M1298.16 337.737C1238.28 347.09 1232.94 440.146 1293.16 453.633C1300.32 455.238 1307.86 455.915 1315.16 454.87C1323.44 453.684 1331 451.242 1338.16 446.831C1390.83 414.376 1359.45 328.165 1298.16 337.737Z" fill="#F9F5D7"/>
<path d="M1196.54 339V405C1196.54 413.565 1197.12 425.075 1187.54 428.991C1179.83 432.142 1174.03 425.875 1167.54 423C1165.82 428.263 1158.94 439.534 1161.61 444.816C1170.49 462.38 1206.39 455.78 1215.75 442.985C1223.17 432.843 1221.54 419.827 1221.54 408V339H1196.54Z" fill="#F9F5D7"/>
<path d="M1383.54 453C1390.01 453 1404.65 455.751 1410.03 451.972C1414.63 448.744 1417.62 435.348 1418.54 430H1448.54C1452.32 430 1457.94 428.996 1461.32 431.028C1467.93 435.01 1465.94 446.38 1471.24 451.397C1476 455.902 1492.24 453 1498.54 453L1453.54 339C1447.54 339 1434.16 336.474 1429.19 340.028C1422.8 344.591 1419.43 361.787 1416.54 369C1409.2 387.359 1401.68 405.642 1394.34 424C1390.62 433.293 1385.24 443.121 1383.54 453ZM1521.54 339V453H1547.54V382H1548.54L1579.85 432L1593.75 451.972L1619.54 453V339H1593.54V409L1560.88 359L1547.16 339.603L1521.54 339ZM1654.54 339V453H1679.54V382L1711.73 431L1726.06 451.972L1751.54 453V339H1726.54V409C1712.99 396.583 1703.06 374.635 1693.35 359C1689.95 353.538 1685.82 343.394 1680.21 340.028C1674.32 336.49 1661.31 339 1654.54 339ZM1775.54 453C1782.01 453 1796.65 455.751 1802.03 451.972C1806.63 448.744 1809.62 435.348 1810.54 430H1840.54C1844.32 430 1849.94 428.996 1853.32 431.028C1859.93 435.01 1857.94 446.38 1863.24 451.397C1868 455.902 1884.24 453 1890.54 453L1845.54 339C1839.54 339 1826.16 336.474 1821.19 340.028C1814.8 344.591 1811.43 361.787 1808.54 369C1801.2 387.359 1793.68 405.642 1786.34 424C1782.62 433.293 1777.24 443.121 1775.54 453Z" fill="#F9F5D7"/>
<path d="M1301.54 362.468C1278.64 366.789 1272.11 400.7 1284.34 417.996C1291.44 428.032 1303.94 430.709 1315.54 428.671C1350.99 422.443 1340.7 355.079 1301.54 362.468Z" fill="#191D37"/>
<path d="M1440.54 375L1428.54 407H1453.54L1440.54 375Z" fill="#191D37"/>
<path d="M1832.54 375L1820.54 407H1845.54L1832.54 375Z" fill="#191D37"/>
<path d="M155 471L166.116 514L189.424 603L202 653L42 670V671C80.828 671 120.262 675.434 159 678.089C174.724 679.167 193.365 683.531 209 681.285C213.594 680.625 217.476 676.367 221 673.651C228.961 667.517 236.972 661.421 245 655.374C248.328 652.867 254.103 649.982 255.672 645.91C257.164 642.04 254.363 635.781 253.29 632C250.279 621.39 247.729 610.647 244.849 600C234.097 560.252 218.99 518.71 213 478L155 471Z" fill="#4A99D0"/>
<path d="M107 516C98.101 530.537 89.336 545.218 80.85 560C78.535 564.033 74.982 573.793 70.32 575.444C66.811 576.686 60.233 572.493 57 571.2C44.943 566.377 37.628 561.163 26 569C33.244 577.456 51.319 586.858 62 590L41 628C54.907 629.758 58.317 623.584 66.576 613C69.147 609.704 73.341 601.519 78.039 601.302C82.422 601.101 88.379 606.251 92 608.397C102.899 614.855 113.992 621.009 125 627.281C128.648 629.359 133.584 633.726 138 633.472C146.237 632.999 157.484 619.829 164 615C157.744 592.789 152.117 570.348 146.37 548C144.634 541.248 143.473 526.576 138.297 521.742C132.267 516.111 114.958 517.917 107 516Z" fill="#4A99D0"/>
<path d="M115 551C107.257 561.446 94.165 572.649 90 585L129 600C125.771 585.915 123.357 562.727 115 551Z" fill="#191D37"/>
<path d="M1690.47 497.773L1723.47 479.773C1722.08 475.664 1715.79 463.927 1710.43 465.079C1705.41 466.158 1700.24 472.809 1696.47 476.044C1693.18 478.866 1686.01 483.056 1685.5 487.774C1685.14 491.172 1688.88 494.977 1690.47 497.773Z" fill="#F9F5D7"/>
<path d="M1011.47 614.773L1000.47 592.773C992.071 595.825 984.801 600.019 975.471 599.157C968.339 598.499 961.43 597.231 955.471 592.984C927.192 572.825 943.188 533.931 975.471 531.863C984.469 531.287 992.687 534.694 1000.47 538.773L1011.47 516.773C966.333 487.005 897.568 527.062 914.676 582.773C916.958 590.204 921.02 596.789 925.936 602.773C931.718 609.813 939.286 615.083 947.471 618.988C956.467 623.28 966.558 625.001 976.471 624.758C989.114 624.449 1000.41 620.59 1011.47 614.773Z" fill="#F9F5D7"/>
<path d="M1794.47 588.773L1782.47 608.773V609.773C1807.58 631.118 1873.35 632.977 1868.3 585.773C1865.29 557.75 1832.91 561.85 1819.92 543.758C1815.27 537.28 1822.37 531.483 1828.47 530.253C1837.5 528.431 1846.8 533.737 1854.47 537.773C1856.98 533.465 1865.28 521.993 1863.23 516.986C1861.1 511.783 1850.32 509.575 1845.47 508.427C1826.15 503.856 1802.79 508.148 1794.74 528.773C1786.7 549.362 1801.59 565.391 1819.47 573.197C1826.14 576.111 1843.54 582.753 1839.11 592.769C1830.23 612.851 1805.92 591.743 1794.47 588.773Z" fill="#F9F5D7"/>
<path d="M1039.47 508.773V622.773H1065.47V576.773H1102.47V622.773H1128.47V508.773H1102.47V553.773H1065.47V508.773H1039.47ZM1196.47 508.773L1151.47 622.773C1157.65 622.773 1174.06 625.672 1178.65 621.17C1183.86 616.066 1182.16 604.738 1188.69 600.801C1192.07 598.769 1197.69 599.773 1201.47 599.773H1231.47C1232.6 606.326 1235.61 619.201 1241.47 622.773C1235.63 630.922 1226.79 643.395 1233.48 653.679C1240.56 664.553 1262.83 662.482 1266.47 649.773C1263.86 648.152 1260.68 644.956 1257.47 644.896C1253.64 644.826 1250.6 648.915 1247.02 645.363C1242.07 640.448 1248.73 626.614 1253.66 623.801C1257.13 621.813 1262.6 622.773 1266.47 622.773C1264.77 612.894 1259.39 603.065 1255.67 593.773C1248.33 575.417 1240.81 557.131 1233.47 538.773C1230.56 531.497 1227.12 514.51 1220.77 509.801C1215.96 506.229 1202.35 508.773 1196.47 508.773ZM1289.47 508.773V622.773C1311.46 622.773 1336.25 626.206 1355.47 613.253C1389.17 590.536 1388.93 536.283 1352.47 516.085C1333.43 505.537 1310.46 508.773 1289.47 508.773Z" fill="#F9F5D7"/>
<path d="M1412.47 508.773V530.773H1460.47L1404.47 622.773H1502.47V599.773H1449.47L1483.89 544.773L1505.47 508.773H1412.47ZM1523.47 508.773C1532.15 531.662 1556.05 548.611 1563.77 571.773C1568.51 585.999 1564.47 607.77 1564.47 622.773H1590.47C1590.47 607.77 1586.43 585.999 1591.17 571.773C1598.89 548.611 1622.79 531.662 1631.47 508.773L1601.85 509.376L1594.47 518.773L1578.47 544.773H1576.47L1560.47 518.773L1553.14 509.376L1523.47 508.773ZM1655.47 508.773V622.773H1680.47V551.773L1712.66 600.773L1726.99 621.745L1752.47 622.773V508.773H1727.47V578.773C1713.92 566.356 1703.99 544.408 1694.28 528.773C1690.88 523.311 1686.75 513.167 1681.14 509.801C1675.25 506.263 1662.24 508.773 1655.47 508.773Z" fill="#F9F5D7"/>
<path d="M1898.47 508.773V622.773H1924.47V574.773L1953.74 607.773L1967.64 622.17L2002.47 622.773L1964.3 578.773L1951.23 562.197L1963.34 546.773L1994.47 508.773L1964.56 509.376L1952.6 521.773L1924.47 554.773V508.773H1898.47ZM2014.47 622.773C2020.94 622.773 2035.58 625.524 2040.96 621.745C2045.56 618.517 2048.55 605.12 2049.47 599.773H2079.47C2083.25 599.773 2088.87 598.769 2092.25 600.801C2098.86 604.783 2096.87 616.153 2102.17 621.17C2106.93 625.675 2123.17 622.773 2129.47 622.773L2084.47 508.773C2078.47 508.773 2065.09 506.247 2060.12 509.801C2053.73 514.364 2050.36 531.56 2047.47 538.773C2040.13 557.132 2032.61 575.415 2025.27 593.773C2021.55 603.065 2016.17 612.894 2014.47 622.773Z" fill="#F9F5D7"/>
<path d="M1316.47 531.773V598.773C1324.52 598.773 1331.55 598.288 1338.47 593.668C1367.85 574.06 1347.88 531.86 1316.47 531.773Z" fill="#191D37"/>
<path d="M1208.47 544.773L1196.47 576.773H1221.47L1208.47 544.773Z" fill="#191D37"/>
<path d="M2071.47 544.773L2059.47 576.773H2084.47L2071.47 544.773Z" fill="#191D37"/>
<path d="M1757.44 756.27C1751.76 757.739 1750.15 763.234 1748.85 768.239C1746.21 778.381 1743.37 788.501 1740.49 798.579C1727.87 842.751 1716.05 887.198 1704.04 931.541C1701.12 942.31 1695.22 955.161 1695.09 966.343C1695.04 971.966 1699.94 976.809 1705.69 975.941C1711.18 975.11 1713.24 970.163 1714.61 965.45C1717.72 954.805 1720.6 944.048 1723.43 933.325C1735.32 888.32 1747.67 843.359 1760.38 798.579C1763.17 788.726 1769.06 775.806 1768.87 765.562C1768.76 759.802 1763.28 754.761 1757.44 756.27Z" fill="#4A99D0"/>
<path d="M1844 853.905C1836.05 865.194 1823.47 874.484 1813.66 884.245C1808.14 889.741 1802.22 894.792 1796.71 900.308C1791.64 905.378 1782.15 911.854 1780.28 919.048C1778.32 926.542 1786.3 932.482 1793.14 929.747C1800.76 926.7 1807.01 917.54 1812.77 911.922C1826.32 898.712 1840.43 886.02 1853.82 872.645C1859.22 867.251 1870.26 859.974 1868.78 851.228C1867.42 843.151 1854.69 838.176 1848.46 834.226C1833.01 824.421 1817.4 814.823 1802.06 804.826C1795.48 800.531 1786.76 792.813 1778.86 791.631C1770.78 790.424 1764.66 798.233 1769.29 805.554C1773.39 812.03 1784.09 816.519 1790.46 820.51C1797.61 824.985 1804.78 829.438 1811.88 833.999C1822.32 840.711 1832.75 848.647 1844 853.905Z" fill="#4A99D0"/>
<path d="M1620.91 877.999C1629.12 867.261 1641.09 857.257 1651.25 848.296C1657.19 843.061 1662.61 837.19 1668.21 831.596C1673.38 826.42 1682.34 821.017 1684.58 813.749C1686.74 806.72 1679.93 799.248 1672.67 801.922C1664.88 804.789 1657.86 814.277 1652.14 819.996C1638.78 833.361 1625.36 847.38 1611.1 859.773C1605.36 864.756 1593.95 872.631 1596.32 881.565C1598.25 888.847 1610.55 893.841 1616.45 897.584C1633.1 908.145 1649.71 918.779 1666.42 929.242C1672.47 933.028 1680.43 940.534 1687.84 940.898C1695.49 941.274 1699.85 932.434 1695.86 926.27C1691.61 919.711 1680.95 915.393 1674.45 911.301L1653.04 897.678C1642.68 891.105 1632.18 882.862 1620.91 877.999Z" fill="#4A99D0"/>
<path d="M3003.33 324.981C2999.26 324.575 2996.89 327.779 2994.83 330.737C2990.67 336.73 2986.38 342.661 2982.08 348.554C2963.21 374.387 2944.8 400.591 2926.3 426.681C2921.8 433.017 2914.86 439.998 2912.09 447.275C2910.7 450.937 2912.74 455.279 2916.7 456.093C2920.49 456.872 2923.03 454.132 2925.06 451.383C2929.65 445.175 2934.11 438.836 2938.54 432.509C2957.13 405.957 2976.01 379.544 2995.08 353.335C2999.27 347.568 3006.22 340.54 3008.56 333.799C3009.87 330.009 3007.5 325.398 3003.33 324.981Z" fill="#4A99D0"/>
<path d="M3036.42 409.59C3028.51 415.056 3018.06 418.103 3009.3 422.124C3004.37 424.388 2999.29 426.267 2994.36 428.546C2989.83 430.641 2982.08 432.593 2979.12 436.843C2976.04 441.271 2979.83 447.07 2984.95 446.926C2990.67 446.766 2996.96 442.284 3002.07 439.996C3014.1 434.619 3026.37 429.719 3038.33 424.196C3043.16 421.968 3052.12 419.866 3053.26 413.797C3054.31 408.191 3047.19 401.881 3044.07 397.802C3036.33 387.68 3028.43 377.656 3020.81 367.436C3017.54 363.047 3013.7 355.907 3008.82 353.237C3003.83 350.507 2997.96 354.139 2999.22 360.036C3000.34 365.252 3006.26 370.758 3009.46 374.897C3013.06 379.54 3016.68 384.174 3020.21 388.86C3025.42 395.756 3030.33 403.449 3036.42 409.59Z" fill="#4A99D0"/>
<path d="M2884.85 371.713C2892.79 366.669 2903.02 363.008 2911.81 359.595C2916.95 357.6 2921.9 355.067 2926.91 352.757C2931.53 350.618 2938.69 349.241 2941.9 345.03C2945 340.956 2942.34 334.436 2936.95 334.438C2931.17 334.439 2924.31 338.953 2919.2 341.315C2907.25 346.837 2895.11 352.774 2882.81 357.443C2877.86 359.32 2868.52 361.725 2867.92 368.132C2867.43 373.354 2874.27 379.575 2877.22 383.439C2885.57 394.343 2893.86 405.284 2902.27 416.138C2905.31 420.067 2908.71 426.885 2913.46 428.903C2918.37 430.987 2923.35 426.259 2922.22 421.272C2921.02 415.965 2915.09 410.58 2911.83 406.345L2901.11 392.295C2895.92 385.509 2891.04 377.599 2884.85 371.713Z" fill="#4A99D0"/>
<path d="M928 624L929 625L928 624ZM987 624L988 625L987 624ZM1048 624L1045 629C1047.14 634.885 1050.95 640.424 1050.36 647C1049.22 659.855 1034.35 669.06 1024 674.241C998.983 686.758 966.487 689.078 952.32 716C945.025 729.864 941.091 746.588 938.869 762C938.248 766.306 938.257 776.532 932.941 777.593C924.628 779.251 912.441 775.166 904 774.155C881.319 771.44 858.62 768.613 836 765.424C822.146 763.472 804.077 759.105 796.568 775.001C792.606 783.387 792.904 794.9 791.718 804C788.81 826.324 786.23 848.702 783.13 871C781.611 881.929 777.897 895.511 785.532 904.957C790.664 911.305 798.43 912.295 806 913.282C819.329 915.019 832.695 916.494 846 918.421C895.198 925.545 944.704 930.86 994 937.282C1010.26 939.4 1038.74 948.667 1054 941C1065.13 935.409 1065.72 921.936 1066.95 911C1069.95 884.31 1073.43 857.602 1077.13 831C1078.69 819.789 1081.32 806.706 1070.91 798.638C1061.49 791.341 1044.38 792.201 1033 790.718C1003.13 786.827 972.609 784.5 943 779C948.831 754.786 949.177 722.717 970.004 705.329C991.469 687.408 1024.5 688.519 1045.99 668.826C1058.27 657.571 1062.75 635.579 1048 624ZM1328 624L1329 625L1328 624ZM1389 624L1390 625L1389 624ZM1706 624L1707 625L1706 624ZM1778 624L1779 625L1778 624Z" fill="#4A99D0"/>
<path d="M942 787C941.415 789.008 940.713 791.813 938 791.795C934.511 791.771 934.382 786.933 931.687 785.599C926.19 782.879 917.074 783.459 911 782.579C884.405 778.728 857.646 775.785 831 772.282C821.947 771.091 808.675 767.986 803.456 778.015C799.327 785.951 799.896 798.221 798.845 807C796.29 828.337 793.659 849.733 790.579 871C789.22 880.386 784.775 894.418 793.108 901.606C802.107 909.368 822.646 907.86 834 909.424C869.935 914.373 905.983 918.843 942 923.155C968.026 926.271 993.975 930.031 1020 933.155C1029.15 934.254 1042.46 938.912 1050.98 933.911C1059.77 928.757 1059.05 914.915 1060.05 906C1062.78 881.658 1065.91 857.243 1069.42 833C1070.7 824.159 1074.13 810.905 1065.95 804.433C1057.94 798.1 1039.89 799.061 1030 797.95C1000.95 794.688 971.227 787.603 942 787Z" fill="#191D37"/>
<path d="M829 790C828.226 796.128 829.882 813.947 841.258 804.968C842.979 803.609 842.916 800.965 843.154 798.999C844.338 789.19 836.849 790.001 829 790Z" fill="#4A99D0"/>
<path d="M856 808L870 810C871.247 806.315 873.302 800.205 871.397 796.434C869.897 793.465 860.207 791.998 858.027 794.618C855.693 797.424 856.072 804.498 856 808Z" fill="#4A99D0"/>
<path d="M886 797L884 811C887.605 812.14 893.924 814.22 897.566 812.396C900.555 810.899 901.981 801.217 899.382 799.024C896.457 796.557 889.616 797.03 886 797Z" fill="#4A99D0"/>
<path d="M929 802C925.31 801.534 919.933 799.759 916.318 801.028C903.418 805.557 925.61 829.542 928.571 809.999C928.975 807.336 928.993 804.687 929 802Z" fill="#4A99D0"/>
<path d="M943 804L941 818L955 821C961.184 808.153 955.322 804.529 943 804Z" fill="#4A99D0"/>
<path d="M972.6 809.029C964.205 815.491 974.999 829.44 983.4 822.971C991.795 816.509 981.001 802.56 972.6 809.029Z" fill="#4A99D0"/>
<path d="M1001 811C999.414 814.294 997.187 820.922 998.693 824.566C1000.03 827.814 1009.84 828.729 1012.14 826.382C1014.77 823.702 1014.35 817.525 1015 814L1001 811Z" fill="#4A99D0"/>
<path d="M1003 811V812H1007L1003 811ZM1616 811L1617 812L1616 811ZM1647 811L1648 812L1647 811ZM1871 811L1872 812L1871 811ZM1901 811L1902 812L1901 811ZM2639.33 811.667L2639.67 812.333L2639.33 811.667ZM2681 811L2682 812L2681 811ZM380 812L381 813L380 812ZM613 812L614 813L613 812ZM887 812V813H891L887 812ZM912.333 812.667L912.667 813.333L912.333 812.667ZM941 812V816H942L941 812ZM1011 812V813H1014L1011 812ZM1071 812V820H1072L1071 812ZM1289 812L1290 813L1289 812ZM1396 812L1397 813L1396 812ZM1615 812L1616 813L1615 812ZM1646 812L1647 813L1646 812ZM1739.33 812.667L1739.67 813.333L1739.33 812.667ZM1870 812L1871 813L1870 812ZM2145 812L2146 813L2145 812ZM2226 812L2227 813L2226 812ZM2606 812L2607 813L2606 812ZM2653 812L2654 813L2653 812ZM2664.67 812.333L2665.33 812.667L2664.67 812.333ZM2821 812L2822 813L2821 812ZM2829 812L2830 813L2829 812ZM390 813L391 814L390 813ZM406 813L407 814L406 813ZM603 813L604 814L603 813ZM614 813L615 814L614 813ZM895 813V814H899L895 813ZM1014 813L1015 814L1014 813ZM1304 813L1305 814L1304 813ZM1614 813L1615 814L1614 813ZM1645 813L1646 814L1645 813ZM1869 813L1870 814L1869 813ZM1900 813L1901 814L1900 813Z" fill="#335EC3"/>
<path d="M1027 830C1030.72 830.293 1035.18 831.749 1038.85 830.681C1053.08 826.546 1030.38 802.497 1027.43 822.001C1027.03 824.664 1027.01 827.313 1027 830Z" fill="#4A99D0"/>
<path d="M2617 815L2618 816L2617 815ZM2640.33 815.667L2640.67 816.333L2640.33 815.667ZM2703 815V820H2704L2703 815ZM388 816L389 817L388 816ZM415 816L416 817L415 816ZM605 816L606 817L605 816ZM918 816V817H922L918 816ZM927 816L928 817L927 816ZM1014 816V820H1015L1014 816ZM1042 816L1043 817L1042 816ZM1642 816L1643 817L1642 816ZM1738.33 816.667L1738.67 817.333L1738.33 816.667ZM1866 816L1867 817L1866 816ZM1897 816L1898 817L1897 816ZM2146 816L2147 817L2146 816ZM2227.67 816.333L2228.33 816.667L2227.67 816.333Z" fill="#335EC3"/>
<path d="M824 833C827.691 833.466 833.067 835.242 836.682 833.972C849.523 829.464 827.551 805.396 824.58 825.001C824.174 827.682 824.022 830.292 824 833Z" fill="#4A99D0"/>
<path d="M854 822C851.611 834.859 853.611 837.889 867 838C869.393 825.117 867.404 822.037 854 822Z" fill="#4A99D0"/>
<path d="M883 825C881.86 828.605 879.78 834.924 881.604 838.566C883.101 841.555 892.784 842.981 894.976 840.382C897.443 837.457 896.97 830.616 897 827L883 825Z" fill="#4A99D0"/>
<path d="M911 829C908.574 842.062 910.572 844.999 924 845C925.573 832.561 924.413 829.277 911 829Z" fill="#4A99D0"/>
<path d="M939 833C938.84 836.733 936.909 842.183 938.604 845.682C944.866 858.604 965.214 835.805 946.999 833.29C944.352 832.925 941.666 833.002 939 833Z" fill="#4A99D0"/>
<path d="M966 851C979.59 853.525 980.037 851.411 983 839C970.398 833.683 966.531 838.639 966 851Z" fill="#4A99D0"/>
<path d="M995 855C998.751 855.296 1004.12 857.138 1007.68 855.397C1020.6 849.08 997.8 828.826 995.29 847.001C994.925 849.648 995.002 852.334 995 855Z" fill="#4A99D0"/>
<path d="M1039 845C1035.25 844.704 1029.88 842.861 1026.32 844.603C1013.19 851.03 1036.01 870.351 1038.7 853.995C1039.18 851.047 1039 847.977 1039 845Z" fill="#4A99D0"/>
<path d="M835 863L837 849C833.315 847.752 827.205 845.698 823.434 847.603C820.451 849.111 819.013 858.778 821.618 860.976C824.543 863.443 831.384 862.97 835 863Z" fill="#4A99D0"/>
<path d="M849 865C861.92 867.4 864.724 865.359 865 852C852.043 849.593 849.009 851.585 849 865Z" fill="#4A99D0"/>
<path d="M892 870C892.296 866.249 894.138 860.879 892.397 857.318C886.079 844.396 866.208 867.253 884.001 869.71C886.648 870.075 889.334 869.998 892 870Z" fill="#4A99D0"/>
<path d="M907 858C906.704 861.751 904.863 867.121 906.603 870.682C913.091 883.952 932.287 860.984 915.995 858.305C913.047 857.82 909.977 858 907 858Z" fill="#4A99D0"/>
<path d="M2226 858L2227 859L2226 858ZM2544.33 858.667L2544.67 859.333L2544.33 858.667ZM2662 858L2663 859L2662 858ZM2687 858L2688 859L2687 858ZM2836 858L2837 859L2836 858ZM382.333 859.667L382.667 860.333L382.333 859.667ZM835 859V862H836L835 859ZM906 859V863H907L906 859ZM921 859L922 860L921 859ZM1028 859V860H1032L1028 859ZM1037 859L1038 860L1037 859ZM1073 859V862H1074L1073 859ZM1310 859L1311 860L1310 859ZM1374.67 859.333L1375.33 859.667L1374.67 859.333ZM1389 859L1390 860L1389 859ZM1623 859L1624 860L1623 859ZM1663 859L1664 860L1663 859ZM2157 859L2158 860L2157 859Z" fill="#335EC3"/>
<path d="M934 876L948 878C949.248 874.315 951.302 868.205 949.397 864.434C947.905 861.482 938.349 860.008 936.178 862.618C933.754 865.531 934.075 872.385 934 876Z" fill="#4A99D0"/>
<path d="M964 865L963 880C966.663 880.157 972.152 882.105 975.566 880.396C978.652 878.851 980.123 869.28 977.393 867.024C974.421 864.568 967.649 865.03 964 865Z" fill="#4A99D0"/>
<path d="M1007 870C1000.7 869.204 983.148 870.877 992.032 882.397C993.189 883.897 995.301 883.913 997.005 884.15C1007.32 885.584 1006.99 878.6 1007 870Z" fill="#4A99D0"/>
<path d="M1019 886L1033 889C1034.59 885.706 1036.81 879.078 1035.31 875.434C1033.97 872.186 1024.16 871.271 1021.86 873.618C1019.23 876.299 1019.65 882.475 1019 886Z" fill="#4A99D0"/>
<path d="M817 890C824.651 891.421 831.056 893.353 832.28 884.001C832.534 882.062 833.282 879.464 831.958 877.742C830.627 876.012 827.946 876.081 825.999 875.846C816.19 874.662 817.001 882.151 817 890Z" fill="#4A99D0"/>
<path d="M860 895C860.16 891.262 862.088 885.823 860.396 882.317C854.226 869.529 833.798 891.813 852.001 894.571C854.664 894.975 857.313 894.993 860 895Z" fill="#4A99D0"/>
<path d="M877.228 884.028C871.935 887.262 873.525 895.939 879.019 897.772C900.747 905.021 928.267 904.292 951 907.282C957.038 908.076 970.472 912.58 975.566 908.258C980.637 903.956 977.715 896.132 971.985 894.684C949.982 889.127 925.512 888.678 903 885.718C896.454 884.858 883.188 880.387 877.228 884.028Z" fill="#4A99D0"/>
<path d="M989 897C986.574 910.062 988.572 912.999 1002 913L1004 899L989 897Z" fill="#4A99D0"/>
<path d="M1018.6 902.028C1010.18 908.554 1021.07 922.293 1029.4 915.968C1037.79 909.605 1027.11 895.433 1018.6 902.028Z" fill="#4A99D0"/>
<path d="M2608 816C2600.66 818.114 2593.82 822.345 2587 825.753C2570.77 833.87 2546.47 840.871 2544.17 862C2542.2 880.145 2555.94 898.364 2563.75 914C2565.27 917.041 2589.4 973.869 2594 972.5C2599.73 970.797 2572.66 917.828 2571.25 915C2564.62 901.741 2547.22 877.367 2550.9 862C2554.25 848.02 2567.35 843.072 2579 837.247C2586.92 833.285 2602.96 821.084 2611.83 821.904C2617.07 822.389 2624.42 830.72 2629 833.575C2643.05 842.323 2657.54 850.093 2667.46 864C2669.6 866.99 2672.16 867.369 2674 870C2676.23 873.18 2677.27 877.984 2680 882C2680 885 2680 882 2683.5 887.5C2688.78 898.432 2706.44 886.026 2714 882.247C2717.1 880.697 2722.88 879.037 2724.38 875.61C2726.06 871.777 2722.87 867.679 2722.24 864.015C2721.45 859.388 2720.5 860 2718 854C2716.11 841.189 2710.69 829.208 2710.1 816C2709.75 808.068 2712.33 799.913 2712.91 792C2713.31 786.602 2711.28 774.527 2714.6 770.39C2720.75 762.734 2737.26 758.122 2746 753.753C2757.72 747.892 2771.1 739.378 2784 747.214C2795.03 753.91 2799.74 768.983 2805.25 780C2817.81 805.136 2832.2 830.062 2843 856L2812 870.753L2754 899.753L2602 976C2600.93 973.435 2583 939.142 2590.04 961.623C2587.1 965.406 2593.06 973.619 2594.75 977C2601.49 990.482 2607.33 1006.39 2624 1009.53C2637.09 1012 2647.72 1005.88 2659 1000.25C2677.19 991.151 2695.23 980.816 2714 973L2725 997C2720.85 998.728 2712.14 1001.33 2710.71 1006.1C2708.54 1013.34 2717.41 1025.65 2725 1022.65C2744.5 1014.93 2763.23 1003.63 2782 994.247C2790.08 990.207 2802.15 986.644 2808.68 980.363C2813.34 975.877 2806.93 960.961 2800.96 959.994C2796.15 959.216 2789.64 964.662 2785 966L2774 942C2794.88 935.986 2815.56 921.969 2835 912.247C2844.36 907.568 2853.45 902.375 2857.29 892C2863.15 876.177 2854.47 861.633 2847.26 847.985C2833.51 821.983 2820.91 795.308 2807.75 769C2801.37 756.233 2795.86 742.649 2781 738.21C2759.84 731.889 2728.74 753.645 2711 764C2696.16 720.429 2634.12 705.681 2607.1 747C2592.24 769.729 2597.38 793.241 2608 816Z" fill="#4A99D0"/>
<path d="M2687 853L2707 841C2705.32 832.347 2702.71 822.862 2703.1 814C2703.77 798.895 2708.8 784.081 2704.84 769C2702.82 761.282 2699.25 754.186 2694.19 748.015C2675.68 725.447 2638.72 722.695 2618.3 744.171C2602.34 760.958 2600.46 788.362 2611.88 808C2620.58 822.969 2636.36 828.562 2650 837.749C2656.75 842.298 2665.7 856.532 2673.71 857.399C2678.06 857.869 2682.34 853.236 2687 853Z" fill="#191D37"/>
<path d="M2652.33 740.029C2649.37 741.795 2648.46 746.154 2644.9 747.044C2636.86 749.052 2632.89 741.042 2625.6 750.615C2622.5 754.691 2626.61 759.614 2623.9 763.697C2621.1 767.908 2615.5 766.294 2613.86 772.019C2610.92 782.327 2617.6 781.588 2620.69 789.105C2622.68 793.956 2616.61 797.687 2619.52 803C2624.91 812.869 2629.7 806.45 2636.86 810.219C2643.76 813.857 2642.89 825.339 2654.9 821.168C2658.9 819.776 2659.58 813.857 2664.04 813.404C2669.22 812.878 2671.55 817.946 2677 814.725C2686.94 808.843 2679.94 805.181 2683.64 797.848C2685.84 793.489 2692.08 794.598 2694.11 789.891C2698.43 779.863 2690.84 778.947 2687.54 771.877C2685.74 768.009 2690.19 764.839 2689.93 761C2689.08 748.674 2678.6 753.515 2672.11 750.647C2665.63 747.789 2663.78 733.189 2652.33 740.029Z" fill="#4A99D0"/>
<path d="M2659 739V740H2662L2659 739ZM2759 739L2760 740L2759 739ZM2784 739L2785 740L2784 739Z" fill="#335EC3"/>
<path d="M2656 746C2652.99 751.037 2649.55 755.307 2643 755.067C2640.18 754.964 2636.19 751.485 2633.62 753.711C2630.99 755.987 2632.83 762.673 2631.16 765.995C2628.89 770.494 2622.41 771.328 2620.8 775.26C2619.16 779.252 2628.78 785.184 2628.69 791C2628.65 794.059 2625.68 797.728 2627.29 800.667C2629.07 803.939 2634.12 801.457 2637 802.154C2642.87 803.574 2646.11 808.398 2647 814C2654.36 813.755 2656.48 806.269 2664 805.647C2667.36 805.37 2672.52 809.407 2675.3 806.381C2677.84 803.618 2675.64 796.951 2678.25 793.019C2680.2 790.073 2687.14 788.01 2687.53 784.815C2687.93 781.645 2684.19 779.881 2682.51 777.791C2678.17 772.4 2679.21 767.131 2683 762L2667.04 756.492L2656 746Z" fill="#191D37"/>
<path d="M2601 758L2602 759L2601 758ZM2632.33 758.667L2632.67 759.333L2632.33 758.667ZM2675.67 758.333L2676.33 758.667L2675.67 758.333ZM2680 758L2681 759L2680 758ZM2689 758L2690 759L2689 758ZM2721 758L2722 759L2721 758ZM2736 758L2737 759L2736 758ZM2758 758L2759 759L2758 758Z" fill="#335EC3"/>
<path d="M2759 758.529C2756.46 759.102 2738.12 765.815 2745.34 769.868C2747.45 771.056 2750.07 769.619 2752 768.74C2756.55 766.669 2760.86 764.65 2766 764.905C2769.19 765.064 2773.61 767.493 2776.68 766.304C2780.53 764.81 2777.03 761.003 2774.94 759.92C2770.37 757.544 2763.95 757.409 2759 758.529Z" fill="#4A99D0"/>
<path d="M2651 764.533C2630.74 768.974 2636.72 800.487 2657 796.305C2677.55 792.065 2671.47 760.047 2651 764.533Z" fill="#4A99D0"/>
<path d="M2613 771V774H2614L2613 771ZM2627 771L2628 772L2627 771ZM2640 771L2641 772L2640 771ZM2651 771L2652 772L2651 771Z" fill="#335EC3"/>
<path d="M2652 771.613C2641.06 774.244 2644.9 791.379 2656 788.963C2667.31 786.501 2663.11 768.943 2652 771.613Z" fill="#191D37"/>
<path d="M2656.67 771.333L2657.33 771.667L2656.67 771.333ZM2783 771L2782 773L2783 771Z" fill="#335EC3"/>
<path d="M2784.4 772.086C2780.1 774.871 2787.63 789.101 2792.39 785.762C2796.2 783.085 2789.09 769.046 2784.4 772.086Z" fill="#4A99D0"/>
<path d="M2635 790L2636 791L2635 790Z" fill="#335EC3"/>
<path d="M2628 794L2629 795L2628 794ZM2633 794L2634 795L2633 794ZM2642 794L2643 795L2642 794ZM2645 794L2646 795L2645 794ZM2662 794L2663 795L2662 794ZM2665 794L2666 795L2665 794Z" fill="#335EC3"/>
<path d="M2606 982C2607.02 985.546 2608.51 988.855 2610.47 991.999C2623.85 1013.45 2647.78 997.864 2664 989.753C2713.79 964.859 2765.34 942.115 2814 915.139C2830.98 905.725 2858.65 898.171 2851.22 873C2850.06 869.105 2848.03 865.487 2846 862L2728 920.753L2606 982Z" fill="#191D37"/>
<path d="M2767 946L2720 970L2731 993C2734.4 992.354 2742.14 993.844 2736.73 998.135C2731.42 1002.35 2724.23 1005.41 2718 1008L2722 1016L2803 976L2800 968C2786.96 970.514 2776.23 983.255 2763.04 985.063C2758.55 985.68 2758.2 981.334 2761.16 978.966C2766.03 975.071 2773.27 972.388 2779 970L2767 946Z" fill="#191D37"/>
<path d="M2747.33 986.477C2744.79 987.05 2720 994.5 2733.67 997.816C2735.78 999.004 2731 1000 2740.33 996.688C2744.88 994.617 2748.5 993.5 2753.5 991.5C2756 990.5 2766.43 984.689 2769.5 983.5C2772 981 2769.09 979.583 2767 978.5C2762.43 976.124 2752.28 985.357 2747.33 986.477Z" fill="#4A99D0"/>
<path d="M501.761 935.815C482.412 935.817 475.939 948.048 466.094 962.815C453.46 981.767 441.061 1000.86 428.428 1019.81C421.258 1030.56 412.872 1040.34 412.761 1053.81H421.761C420.07 1042.99 430.784 1032.28 436.428 1023.81C447.506 1007.19 458.349 990.434 469.428 973.815C474.854 965.676 479.811 955.766 486.854 948.923C495.479 940.544 509.356 944.844 513.751 955.815C517.673 965.606 506.745 977.338 501.761 984.815C486.926 1007.06 468.193 1029.64 456.761 1053.81C470.095 1053.81 472.818 1045.22 479.761 1034.81C492.038 1016.4 507.294 997.826 516.761 977.815C544.49 998.286 503.136 1033.99 493.761 1053.81C506.012 1053.81 508.739 1046.34 515.094 1036.81C524.161 1023.21 536.697 1009.29 534.577 991.815C533.503 982.971 522.882 975.305 522.827 967.8C522.778 961.081 527.021 953.01 529.337 946.815C533.588 935.443 537.18 923.77 539.337 911.815C548.007 863.741 529.181 815.729 493.761 782.905C439.351 732.483 346.288 739.82 298.047 794.815C286.888 807.537 277.835 821.97 271.825 837.815C267.375 849.548 264.955 864.014 258.232 874.667C255.807 878.508 250.711 878.077 246.761 879.255C240.887 881.006 235.42 884.205 231.43 888.905C218.051 904.666 221.485 934.248 219.591 953.815C218.635 963.698 218.132 973.088 223.869 981.815C229.851 990.915 237.802 990.93 245.447 996.749C249.467 999.805 250.038 1006.88 253.866 1010.71C263.733 1020.57 282.284 1020.19 291.547 1009.77C301.049 999.085 298.632 978.231 299.931 964.815C302.414 939.153 306.574 912.591 306.756 886.815C306.837 875.442 299.025 872.268 296.307 862.815C293.3 852.361 307.86 831.805 313.482 823.815C359.777 758.016 460.666 766.071 498.452 835.815C509.437 856.089 513.981 880.049 510.323 902.815C508.509 914.1 503.409 924.656 501.761 935.815Z" fill="#4A99D0"/>
<path d="M273.761 860.815H286.761C307.468 773.433 414.435 741.938 480.761 799.24C492.302 809.211 501.827 822.119 508.502 835.815C518.471 856.272 522.676 880.324 519.171 902.815C517.953 910.625 516.239 918.305 513.76 925.815C512.651 929.176 509.909 934.127 510.69 937.726C511.533 941.612 516.732 944.706 519.761 946.815C528.734 926.572 535.108 901.01 532.185 878.815C525.806 830.372 500.867 789.059 454.761 768.677C383.785 737.301 285.8 779.296 273.761 860.815Z" fill="#191D37"/>
<path d="M275.762 870.373C263.239 873.675 264.262 892.59 263.761 902.815C262.29 932.829 254.833 963.808 255.819 993.815C256.182 1004.85 266.569 1010.64 276.761 1008.42C291.29 1005.26 288.721 988.046 290.046 976.815C292.243 958.211 293.149 939.458 294.931 920.815C296.11 908.476 299.493 894.152 297.547 881.815C295.927 871.544 284.803 867.988 275.762 870.373Z" fill="#191D37"/>
<path d="M246.761 986.815L255.761 886.815C228.062 888.084 231.509 919.998 229.591 939.815C228.692 949.103 226.456 959.517 228.09 968.815C229.734 978.174 237.308 985.842 246.761 986.815Z" fill="#191D37"/>
<path d="M421.761 1053.81C430.267 1053.81 449.022 1057.36 456.243 1052.78C462.961 1048.52 467.728 1036.36 472.094 1029.81C484.315 1011.48 496.694 993.249 508.757 974.815C513.746 967.192 517.416 957.904 510.229 950.283C503.403 943.046 492.036 942.509 485.279 950C466.935 970.337 453.308 997.995 438.094 1020.81C431.391 1030.87 421.866 1041.25 421.761 1053.81Z" fill="#191D37"/>
<path d="M516.761 977.815L467.761 1053.81C474.33 1053.81 487.61 1056.36 493.243 1052.78C498.537 1049.42 502.316 1039.98 505.761 1034.81C515.994 1019.46 538.79 993.706 516.761 977.815Z" fill="#191D37"/>
<path d="M595.135 470.558L429.622 417.016C429.596 417.007 429.567 417.022 429.558 417.049L376.016 582.561C376.007 582.588 376.022 582.617 376.048 582.625L541.561 636.168C541.588 636.177 541.617 636.162 541.625 636.135L595.168 470.622C595.177 470.596 595.162 470.567 595.135 470.558Z" fill="#F7DF1E"/>
<path d="M495.658 570.581C497.114 577.126 500.387 582.473 507.826 584.879C514.295 586.972 519.547 585.098 521.012 580.569C522.686 575.394 519.109 572.093 513.039 566.556L509.681 563.684C499.929 555.169 494.373 546.941 498.454 534.326C502.221 522.681 513.884 516.45 527.793 520.949C537.82 524.193 543.785 530.053 545.707 540.679L531.228 544.571C530.21 538.882 527.926 535.999 523.398 534.534C518.87 533.069 515.017 535.039 513.761 538.92C512.296 543.449 514.58 546.331 520.43 551.44L523.789 554.312C535.167 564.425 540.828 572.33 536.538 585.592C532.038 599.501 518.529 603.706 503.65 598.893C489.095 594.184 481.912 584.357 480.313 573.835L495.658 570.581ZM440.252 554.087C441.479 559.129 442.165 563.638 447.663 565.417C452.839 567.091 456.701 566.197 459.212 558.434L476.582 504.74L492.108 509.763L474.948 562.809C469.716 578.982 458.033 583.064 444.125 578.564C431.51 574.484 426.487 565.713 425.44 556.799L440.252 554.087Z" fill="black"/>
<g clip-path="url(#clip1_1_2)">
<path d="M1267.56 82.5237L1309.93 216.955L1367.79 220.171L1418.93 192.932L1400.86 53.1349L1267.56 82.5237Z" fill="#2196F3"/>
<path d="M1384.79 103.693L1387.05 121.255L1393.81 173.91L1361.38 191.073L1361.35 191.089L1324.73 189.139L1316.37 162.668L1333.28 158.94L1337.62 172.669L1357.51 173.596L1357.51 173.585L1375.19 164.376L1372.61 140.474L1313.53 153.668L1308.34 138.08L1370.38 123.632L1367.87 106.274L1302.79 120.813L1298.19 105.164L1340.39 95.8601L1382.58 86.5564L1384.79 103.693Z" fill="#FAFAFA"/>
</g>
<g clip-path="url(#clip2_1_2)">
<path d="M1603.91 9.68872L1562.13 142.409L1607.12 177.751L1663.9 184.647L1728.37 61.331L1603.91 9.68872Z" fill="#FF5722"/>
<path d="M1686.42 92.9951L1648.77 77.3733L1626.77 68.2437L1621.52 84.9161L1642.1 93.4555L1678.32 108.487L1654.04 154.933L1618.39 150.592L1618.36 150.59L1590.13 128.414L1598.36 102.267L1614.01 108.759L1609.74 122.329L1625.15 134.254L1625.17 134.252L1644.51 136.743L1654.77 117.128L1635.58 109.164L1600.75 94.7119L1616.24 45.4814L1655.28 61.6823L1694.32 77.8795L1686.42 92.9951Z" fill="#FAFAFA"/>
</g>
<g clip-path="url(#clip3_1_2)">
<path d="M1433.76 845.859C1426.15 846.967 1419.78 849.73 1414.61 853.221C1412.01 849.475 1409.48 846.169 1408.75 843.585C1407.92 840.569 1407.18 838.76 1407.14 835.022C1407.11 831.283 1408.53 825.754 1408.43 825.36C1408.34 824.967 1407.64 823.153 1403.24 823.727C1398.84 824.302 1395.18 825.711 1394.9 826.93C1394.62 828.149 1394.15 830.9 1393.97 833.692C1393.78 837.789 1387.75 853.159 1384.21 861.264C1382.32 858.558 1380.69 856.183 1380.12 854.186C1379.29 851.17 1378.55 849.361 1378.52 845.623C1378.48 841.884 1379.9 836.355 1379.81 835.961C1379.71 835.568 1379.01 833.754 1374.61 834.328C1370.22 834.903 1366.55 836.312 1366.27 837.531C1366 838.75 1365.9 841.531 1365.35 844.293C1364.8 847.055 1357.48 872.332 1355.54 878.869C1354.55 882.222 1353.66 884.91 1353.03 886.749C1353.03 886.749 1353 886.874 1352.91 887.09C1352.36 888.673 1352.03 889.533 1352.03 889.533C1352.03 889.533 1352.03 889.533 1352.04 889.573C1351.59 890.734 1351.09 891.821 1350.77 891.866C1350.53 891.899 1349.69 889.087 1349.9 885.07C1350.34 876.586 1352.33 863.205 1352.23 862.772C1352.2 862.533 1352.6 860.197 1349.25 859.487C1345.97 858.766 1345.13 860.838 1344.85 860.877C1344.57 860.916 1344.46 861.622 1344.46 861.622C1344.46 861.622 1345.91 846.69 1335.81 848.104C1329.51 848.987 1321.78 857.11 1318.34 863.939C1315.83 865.795 1310.49 869.758 1304.78 874.017C1302.61 875.663 1300.36 877.321 1298.26 878.877C1298.07 878.74 1297.89 878.563 1297.7 878.425C1283.66 867.086 1259.79 861.032 1258.29 843.379C1257.76 836.943 1257.6 819.875 1295.58 793.805C1326.86 772.538 1354.24 773.382 1360.29 782.91C1368.95 796.508 1351.78 826.419 1317.61 835.192C1304.57 838.525 1296.91 834.389 1294.88 832.72C1292.77 830.981 1292.47 830.901 1291.85 831.395C1290.82 832.15 1291.79 833.845 1292.33 834.827C1293.75 837.395 1298.69 841.586 1306.24 842.929C1312.92 844.109 1328.6 843.092 1346.38 833.197C1366.27 822.11 1379.54 797.181 1372.06 778.901C1364.54 760.343 1331.72 758.469 1303.02 773.435C1285.95 782.336 1267.89 795.12 1255.71 810.171C1241.25 828.065 1240.51 841.962 1242.39 847.478C1249.07 867.049 1278.64 876.253 1291.09 884.397C1290.58 884.794 1290.1 885.146 1289.69 885.447C1284.53 888.977 1264.93 902.994 1261.3 915.424C1257.17 929.511 1265.45 938.037 1270.21 938.671C1285.01 940.626 1298.66 931.472 1304.88 918.638C1311.1 905.804 1308.01 890.694 1303.4 884.219C1303.35 884.145 1303.3 884.071 1303.2 884.002C1304.52 882.963 1305.88 881.878 1307.2 880.839C1309.8 878.766 1312.37 876.819 1314.59 875.206C1313.75 879.107 1313.37 883.677 1313.79 890.129C1314.24 897.715 1318.68 907.022 1323.24 910.288C1325.27 911.713 1327.39 911.457 1328.75 911.267C1333.46 910.607 1335.03 906.4 1336.73 901.441C1338.81 895.372 1340.49 888.424 1340.49 888.424C1340.49 888.424 1339.75 906.675 1348.52 905.445C1351.72 904.998 1354.37 900.395 1355.51 898.079L1355.51 898.119C1355.51 898.119 1355.58 897.988 1355.7 897.686C1355.94 897.123 1356.1 896.776 1356.1 896.776L1356.09 896.696C1357.05 894.282 1359.22 888.812 1362.31 879.793C1366.29 868.167 1369.7 853.856 1369.7 853.856C1369.7 853.856 1370.64 857.101 1373.05 862.379C1374.46 865.477 1376.95 868.749 1379.03 871.958C1378.01 873.932 1377.35 875.042 1377.35 875.042C1377.35 875.042 1377.35 875.042 1377.39 875.076C1376.54 876.578 1375.63 878.211 1374.6 879.821C1370.98 885.618 1366.62 892.291 1366.14 894.108C1365.59 896.26 1366 897.709 1367.76 898.682C1369.04 899.398 1371.13 899.227 1373.23 898.811C1377.1 897.984 1379.72 896.641 1380.99 895.852C1383 894.798 1385.31 893.294 1387.39 891.254C1391.22 887.503 1393.18 882.63 1392.11 876.718C1391.53 873.462 1389.99 870.341 1388.25 867.453C1388.57 866.838 1388.85 866.229 1389.17 865.614C1394.53 854.813 1398.25 843.266 1398.25 843.266C1398.25 843.266 1399.19 846.511 1401.6 851.789C1402.79 854.471 1404.85 857.274 1406.7 860.026C1401.07 866.063 1398 872.597 1397.15 876.703C1395.65 884.318 1398.07 887.317 1401.89 887.555C1403.61 887.679 1405.89 886.546 1407.54 885.542C1409.68 884.51 1412.14 882.904 1414.4 880.717C1418.22 876.966 1421.72 872.001 1420.65 866.088C1420.15 863.391 1419.05 860.818 1417.69 858.364C1422.77 855.375 1429.54 853.165 1438.54 852.962C1457.85 852.536 1463.26 863.863 1463.24 868.952C1463.22 874.04 1459.61 877.313 1458.41 878.335C1457.21 879.358 1456.81 879.699 1457.02 880.281C1457.3 881.136 1457.93 881.007 1459.03 880.691C1460.55 880.193 1468.44 875.263 1467.51 866.034C1466.47 854.218 1453.5 842.973 1433.76 845.859ZM1294.15 915.788C1288.8 923.535 1280.39 927.358 1276.29 925.694C1271.89 923.91 1272.07 913.55 1278.79 905.203C1282.88 900.114 1288.37 895.154 1292.05 892.075C1292.89 891.388 1294.13 890.4 1295.63 889.173C1295.89 888.974 1296.03 888.872 1296.03 888.872C1296.33 888.628 1296.62 888.384 1296.91 888.139C1301.19 898.118 1299.76 907.637 1294.15 915.788ZM1335.67 878.153C1334.22 883.808 1331.55 898.139 1328.65 897.772C1326.17 897.469 1323.24 887.3 1325.19 876.569C1326.19 871.18 1328.96 864.526 1330.74 861.836C1333.63 857.524 1337.25 855.716 1338.38 857.144C1339.82 859.017 1336.56 874.611 1335.67 878.153ZM1376.08 890.966C1375.23 891.574 1374.39 892.016 1373.96 891.832C1373.66 891.712 1374.25 890.978 1374.25 890.978C1374.25 890.978 1378.28 885.205 1379.83 882.628C1380.72 881.12 1381.77 879.345 1382.88 877.359L1382.95 877.878C1383.81 883.984 1378.48 888.921 1376.08 890.966ZM1404.36 880.21C1403.61 879.827 1403.51 878.214 1405.08 872.907C1405.69 870.828 1407.3 867.265 1410.41 863.615C1410.99 864.836 1411.44 866.034 1411.57 867.197C1412.61 874.905 1407.5 878.549 1404.36 880.21Z" fill="#CD6799"/>
</g>
<path d="M2196.73 634.727C2192.16 637.444 2189.31 647.959 2187.2 652.68C2180.48 667.763 2173.2 682.596 2166.48 697.68C2165.44 700.013 2156.44 717.373 2166.14 714.018C2171.2 712.269 2173.94 701.108 2176.08 696.68C2184.74 678.738 2195.79 659.65 2201.83 640.681C2202.91 637.273 2201.19 632.076 2196.73 634.727Z" fill="#F9F5D7"/>
<path d="M2057.55 646.57C2050.19 648.69 2060.97 660.953 2062.92 663.68C2073.11 677.943 2083 692.422 2093.2 706.68C2095.5 709.89 2100.64 720.557 2105.92 718.057C2111.99 715.179 2101.33 703.513 2099.36 700.68C2089.61 686.6 2079.66 672.659 2069.76 658.68C2067.46 655.423 2062.67 645.098 2057.55 646.57Z" fill="#F9F5D7"/>
<path d="M2004.49 747.513C1999.47 749.359 2003.06 754.002 2006.36 755.147C2023.49 761.098 2042.66 763.496 2060.34 767.561C2064.63 768.547 2074.84 772.755 2078.73 769.652C2085.37 764.354 2068.79 761.145 2066.34 760.564C2051.37 757.015 2036.36 753.574 2021.34 750.256C2016.81 749.254 2009.01 745.85 2004.49 747.513Z" fill="#F9F5D7"/>
<path d="M2135.77 768.59L2261.38 842.652L2177.51 908.313L2135.77 768.59Z" fill="#F9F5D7"/>
<rect x="2207.12" y="881.638" width="26" height="66" transform="rotate(-38.0549 2207.12 881.638)" fill="#F9F5D7"/>
<g clip-path="url(#clip4_1_2)">
<path d="M2452.5 442.38C2450.01 441.093 2447.41 439.841 2444.72 438.623C2445.46 436.809 2446.15 435.015 2446.79 433.244C2457.33 404.178 2456.8 379.45 2444.18 369.496C2432.07 359.95 2409.3 364.75 2384.71 380.568C2382.34 382.089 2379.96 383.716 2377.56 385.437C2376.35 383.892 2375.14 382.392 2373.93 380.949C2354.01 357.306 2332.32 345.408 2317.39 351.374C2303.08 357.095 2295.86 379.219 2297.29 408.426C2297.42 411.248 2297.64 414.14 2297.94 417.091C2294.56 417.54 2291.28 418.066 2288.13 418.674C2259.95 424.12 2240.69 436.281 2238.47 451.482C2236.19 467.182 2252.28 485.606 2278.83 499.222C2280.92 500.296 2283.11 501.342 2285.37 502.361C2284.15 505.33 2283.05 508.252 2282.06 511.115C2272.7 538.248 2273.61 561.009 2285.67 570.521C2298.13 580.345 2322.13 575.606 2347.19 559.413C2349.17 558.133 2351.17 556.761 2353.18 555.311C2355.15 557.849 2357.13 560.268 2359.12 562.556C2377.95 584.218 2398.13 594.795 2412.39 589.095C2427.13 583.207 2435.01 560.047 2433.49 530.253C2433.38 527.977 2433.19 525.643 2432.96 523.26C2434.63 523.02 2436.27 522.76 2437.88 522.474C2468.33 517.081 2489.49 504.276 2491.8 488.367C2494.02 473.111 2478.49 455.783 2452.5 442.38ZM2435.97 511.706C2434.52 511.963 2433.04 512.2 2431.53 512.418C2429.8 501.802 2427.04 490.379 2423.37 478.457C2430.01 468.308 2435.72 458.258 2440.3 448.628C2442.79 449.755 2445.19 450.913 2447.49 452.1C2469.76 463.584 2482.32 477.597 2480.98 486.791C2479.55 496.584 2462.26 507.049 2435.97 511.706ZM2422.57 530.809C2423.24 543.983 2421.92 555.614 2418.92 564.42C2416.23 572.333 2412.4 577.314 2408.33 578.939C2399.68 582.398 2383.48 573.906 2367.37 555.38C2365.53 553.256 2363.68 551.008 2361.85 548.644C2370.12 541.877 2378.58 533.84 2387.01 524.774C2399.41 525.471 2411.24 525.379 2422.09 524.481C2422.3 526.641 2422.46 528.752 2422.57 530.809ZM2310.31 563.851C2302.11 565.47 2295.88 564.645 2292.44 561.933C2285.12 556.16 2284.39 537.886 2292.4 514.681C2293.32 512.024 2294.34 509.306 2295.47 506.54C2305.52 510.346 2316.76 513.669 2328.89 516.452C2334.46 527.336 2340.48 537.47 2346.73 546.485C2344.88 547.81 2343.06 549.061 2341.25 550.228C2330.17 557.388 2319.44 562.049 2310.31 563.851ZM2283.82 489.491C2272.08 483.47 2262.68 476.498 2256.56 469.492C2251.06 463.196 2248.66 457.392 2249.29 453.058C2250.64 443.833 2266.1 434.07 2290.21 429.412C2293.13 428.847 2296.18 428.357 2299.32 427.938C2300.99 438.711 2303.58 450.098 2307.01 461.73C2300.32 472.054 2294.51 482.393 2289.79 492.359C2287.72 491.426 2285.73 490.47 2283.82 489.491ZM2308.21 407.895C2306.99 382.87 2312.82 364.977 2321.45 361.529C2330.64 357.857 2348.36 367.581 2365.56 387.996C2366.66 389.3 2367.76 390.658 2368.85 392.057C2360.34 398.889 2351.76 406.828 2343.38 415.621C2331.31 414.991 2319.64 415.104 2308.81 415.953C2308.54 413.205 2308.34 410.514 2308.21 407.895ZM2413.55 450.788C2411.68 446.093 2409.72 441.491 2407.7 436.997C2415.63 439.196 2423.18 441.68 2430.21 444.398C2427 451.078 2423.22 457.998 2418.92 465.032C2417.26 460.334 2415.47 455.582 2413.55 450.788ZM2375.31 400.896C2379.52 407.031 2383.64 413.796 2387.6 421.063C2382.68 420.108 2377.68 419.256 2372.62 418.519C2367.61 417.79 2362.62 417.184 2357.66 416.697C2363.53 410.924 2369.45 405.628 2375.31 400.896ZM2324.13 437.845C2321 441.822 2317.98 445.849 2315.08 449.903C2313.01 441.97 2311.39 434.228 2310.22 426.811C2317.68 426.246 2325.58 426.045 2333.76 426.212C2330.49 429.975 2327.28 433.856 2324.13 437.844L2324.13 437.845ZM2322.71 503.679C2314.55 501.545 2306.91 499.152 2299.91 496.527C2303.2 489.629 2307.05 482.524 2311.38 475.358C2313.01 480.068 2314.77 484.793 2316.65 489.511L2316.66 489.511C2318.58 494.318 2320.6 499.047 2322.71 503.679ZM2355.39 539.795C2351.07 533.514 2346.85 526.647 2342.81 519.335C2347.63 520.231 2352.56 521.049 2357.59 521.78C2362.75 522.532 2367.87 523.159 2372.93 523.667C2367.02 529.652 2361.15 535.058 2355.39 539.795ZM2415.38 490.102C2417.64 498.313 2419.41 506.195 2420.64 513.626C2413.05 514.232 2404.92 514.427 2396.42 514.213C2399.66 510.429 2402.88 506.507 2406.08 502.455C2409.31 498.356 2412.41 494.231 2415.38 490.102ZM2397.49 495.683C2392.53 501.973 2387.51 507.936 2382.48 513.522C2374.89 512.965 2367.08 512.111 2359.16 510.958C2351.28 509.811 2343.65 508.449 2336.33 506.895C2332.95 500.001 2329.75 492.822 2326.81 485.453L2326.81 485.453C2323.87 478.103 2321.26 470.742 2318.97 463.468C2323.24 457.132 2327.84 450.813 2332.72 444.615L2332.72 444.616C2337.62 438.402 2342.69 432.459 2347.85 426.849C2355.47 427.377 2363.24 428.205 2371.05 429.341L2371.05 429.341C2378.89 430.483 2386.58 431.909 2394.03 433.58C2397.32 440.374 2400.46 447.49 2403.4 454.847C2406.37 462.286 2409.03 469.615 2411.36 476.763C2407.08 483.065 2402.44 489.401 2397.49 495.683ZM2437.41 378.084C2445.18 384.211 2445.61 404.421 2436.51 429.517C2435.93 431.118 2435.3 432.744 2434.64 434.387C2424.48 430.432 2413.33 426.966 2401.54 424.105C2396.03 413.179 2390.13 403.117 2384.02 394.261C2386.24 392.672 2388.44 391.169 2390.63 389.766C2411.7 376.213 2430.11 372.332 2437.41 378.084ZM2368.43 447.303C2380.92 449.122 2389.58 460.724 2387.76 473.218C2385.94 485.711 2374.34 494.365 2361.84 492.546C2349.35 490.727 2340.7 479.124 2342.52 466.631C2344.34 454.137 2355.94 445.484 2368.43 447.303Z" fill="#00D8FF"/>
</g>
<g clip-path="url(#clip5_1_2)">
<path d="M2629.41 469.704L2728.51 462.15L2812.65 519.054L2765.05 634.466L2675.57 656.323L2610.63 592.975L2629.41 469.704Z" fill="#E23237"/>
<path d="M2812.65 519.054L2728.51 462.15L2675.57 656.323L2765.03 634.538L2812.65 519.054Z" fill="#B52E31"/>
<path d="M2722.47 484.86L2632.04 594.742L2653.17 600.118L2672.17 574.949L2696.2 581.502L2696.27 581.521L2722.66 588.717L2727.23 620.698L2747.23 626.535L2722.47 484.86ZM2711.68 525.021L2719.86 569.973L2701.62 565L2700.69 564.747L2684.1 560.222L2711.68 525.021Z" fill="white"/>
</g>
<g clip-path="url(#clip6_1_2)">
<path d="M718.651 377.758L729.658 452.637L879.416 430.623L857.402 280.865L707.644 302.879L718.651 377.758ZM838.452 354.028C842.161 354.333 845.697 355.73 848.613 358.042C850.214 359.284 851.657 360.715 852.912 362.306C852.94 362.498 847.113 367.822 843.531 370.845C843.401 370.962 842.734 370.424 841.96 369.571C841.058 368.435 839.883 367.546 838.544 366.987C837.206 366.429 835.748 366.218 834.306 366.375C829.719 366.731 827.147 369.545 827.746 373.459C827.852 374.44 828.218 375.375 828.805 376.168C830.105 378.094 832.143 379.055 838.335 380.715C849.736 383.751 854.772 386.12 858.259 390.026C862.15 394.35 863.995 401.985 862.68 408.029C861.2 414.611 855.951 419.703 847.854 422.325C844.126 423.317 840.289 423.84 836.431 423.882C830.522 423.794 824.793 421.829 820.074 418.27C818.473 416.951 815.206 413.38 815.332 413.067C815.721 412.678 816.139 412.318 816.581 411.99L821.627 408.017L825.562 404.893L826.656 406.091C828.491 408.037 830.693 409.602 833.134 410.695C838.296 412.507 844.787 411.198 847.593 407.811C848.523 406.585 848.992 405.071 848.921 403.534C848.849 401.997 848.241 400.534 847.201 399.399C845.759 397.91 843.156 396.86 836.03 394.921C827.812 392.727 824.179 391.156 820.653 388.32C818.435 386.433 816.657 384.084 815.443 381.436C814.377 378.365 813.812 375.142 813.771 371.891C814.267 364.192 819.096 358.158 827.04 355.412C830.755 354.387 834.603 353.929 838.455 354.052L838.452 354.028ZM804.223 365.473L805.125 371.607L785.68 374.465L793.822 429.852L780.032 431.879L771.889 376.48L752.396 379.346L751.516 373.355C751.16 371.301 750.913 369.229 750.775 367.149C750.833 367.042 762.734 365.244 777.115 363.154L803.244 359.314L804.223 365.473Z" fill="#007ACC"/>
</g>
<g clip-path="url(#clip7_1_2)">
<path d="M2459.1 199.776C2466.1 200.195 2472.3 195.123 2473.23 187.969C2474.16 180.816 2469.16 174.15 2462.04 172.981L2461.57 172.903C2454.17 171.932 2447.46 177.163 2446.49 184.554C2446.14 188.15 2447.06 191.467 2448.85 193.952C2438.17 208.516 2423.92 218.111 2403.81 224.795C2390.14 229.37 2376.7 229.598 2363.92 225.795C2353.47 222.618 2345.95 216.511 2342.01 207.828C2336.32 194.96 2337.67 182.274 2346.15 170.757C2352.14 162.485 2360.35 157.014 2365.4 154.434C2364.96 151.195 2364.39 145.744 2364.3 141.833C2325.8 161.084 2323.83 195.344 2331.66 212.949C2337.55 226.092 2352.24 236.055 2369.8 238.939C2374.55 239.718 2379.38 240.023 2384.32 239.616C2415.67 238.675 2441.65 224.431 2459.1 199.776ZM2505.7 177.227C2491.13 153.158 2466.46 137.173 2436.08 132.186L2432.28 131.562C2430.85 126.943 2426.8 123.356 2421.82 122.538L2421.35 122.46C2413.95 121.489 2407.24 126.72 2406.27 134.111C2405.34 141.265 2410.34 147.931 2417.46 149.1L2417.93 149.177C2423.19 149.798 2428.25 147.218 2430.89 143.024L2435.16 143.725C2453.2 146.687 2469.43 154.71 2483.18 167.44C2493.76 177.215 2500.63 188.815 2503.35 201.927C2505.75 212.55 2503.92 222.234 2498.28 229.833C2489.57 241.311 2477.29 246.357 2462.58 243.941C2453.08 242.383 2444.53 238.056 2440.14 235.142C2437.14 237.085 2431.77 240.1 2428.05 241.926C2437.48 248.345 2447.49 252.668 2457.46 254.305C2480.25 258.046 2499.16 248.243 2507.63 236.726C2516.77 224.101 2520.19 200.308 2505.7 177.227ZM2379.65 190.87C2378.72 198.024 2383.71 204.69 2390.83 205.859L2391.31 205.937C2398.71 206.908 2405.41 201.677 2406.38 194.286C2407.31 187.132 2402.32 180.467 2395.2 179.298L2394.72 179.22C2394.25 179.142 2393.53 179.025 2393.02 179.184C2385.94 161.46 2384.79 143.248 2389.32 124.509C2392.61 110.436 2399.38 98.8828 2409.36 90.0489C2417.69 82.4042 2431.68 80.3176 2440.73 81.5612C2465.97 85.2174 2471.51 118.276 2470.16 130.962C2473.13 132.18 2478.08 134.697 2481.44 136.467C2484.9 97.5805 2464.44 73.7627 2441.65 70.0218C2420.29 66.5147 2398.06 78.6956 2386.49 100.177C2370.59 128.74 2372.92 159.079 2382.44 184.266C2380.98 185.731 2379.84 188.223 2379.65 190.87Z" fill="#764ABC"/>
</g>
</g>
<defs>
<clipPath id="clip0_1_2">
<rect width="3000" height="1055" fill="white"/>
</clipPath>
<clipPath id="clip1_1_2">
<rect width="156" height="156" fill="white" transform="translate(1258.04 84.6229) rotate(-12.4333)"/>
</clipPath>
<clipPath id="clip2_1_2">
<rect width="154" height="154" fill="white" transform="translate(1595.02 6) rotate(22.5348)"/>
</clipPath>
<clipPath id="clip3_1_2">
<rect width="221.224" height="165.918" fill="white" transform="translate(1232 777.686) rotate(-7.97317)"/>
</clipPath>
<clipPath id="clip4_1_2">
<rect width="256" height="228" fill="white" transform="translate(2254.85 339) rotate(8.28413)"/>
</clipPath>
<clipPath id="clip5_1_2">
<rect width="190.513" height="202.42" fill="white" transform="translate(2638.25 437) rotate(15.252)"/>
</clipPath>
<clipPath id="clip6_1_2">
<rect width="155" height="155" fill="white" transform="translate(705 301.542) rotate(-8.36225)"/>
</clipPath>
<clipPath id="clip7_1_2">
<rect width="189" height="180" fill="white" transform="translate(2350.16 55) rotate(9.32415)"/>
</clipPath>
</defs>
</svg>
